# xmcd CD database file
#
# Track frame offsets:
#	150
#	30185
#	69690
#	95372
#	118092
#	147775
#	170915
#	202675
#	245567
#	273455
#	303300
#
# Disc length: 4293 seconds
#
# Revision: 0
# Processed by: cddbd v1.5.1PL0 Copyright (c) Steve Scherf et al.
# Submitted via: CDex 1.50Beta7
#
DISCID=9610c30b
DTITLE=World on a string - World on a string
DYEAR=2004
DGENRE=Jazz
TTITLE0=Light handed
TTITLE1=Lydian mode
TTITLE2=New gems
TTITLE3=Inborn
TTITLE4=Straight ahead
TTITLE5=Martin Rockford's
TTITLE6=Root and branch
TTITLE7=India
TTITLE8=As the crow flies
TTITLE9=Sine die
TTITLE10=Between leaves
EXTD=YEAR: 2004
EXTT0=
EXTT1=
EXTT2=
EXTT3=
EXTT4=
EXTT5=
EXTT6=
EXTT7=
EXTT8=
EXTT9=
EXTT10=
PLAYORDER=
